<?xml version="1.0" standalone="no"?>
<!DOCTYPE svg PUBLIC "-//W3C//DTD SVG 20010904//EN"
 "http://www.w3.org/TR/2001/REC-SVG-20010904/DTD/svg10.dtd">
<svg version="1.0" xmlns="http://www.w3.org/2000/svg"
 width="232.000000pt" height="148.000000pt" viewBox="0 0 232.000000 148.000000"
 preserveAspectRatio="xMidYMid meet">

<g transform="translate(0.000000,148.000000) scale(0.100000,-0.100000)"
fill="#000000" stroke="none">
<path d="M643 900 c-12 -5 -26 -18 -32 -29 -9 -16 -8 -20 7 -24 9 -2 25 3 34
11 20 16 48 10 48 -12 0 -8 -14 -16 -35 -20 -19 -4 -41 -14 -50 -22 -18 -18
-20 -65 -3 -82 15 -15 74 -16 83 -2 5 8 11 7 21 -1 12 -10 18 -9 28 2 15 16 8
151 -9 168 -16 16 -67 22 -92 11z m57 -118 c0 -21 -18 -42 -37 -42 -13 0 -18
41 -6 53 14 14 43 7 43 -11z"/>
<path d="M852 894 c-12 -8 -22 -10 -22 -5 0 6 -9 11 -20 11 -19 0 -20 -7 -20
-95 0 -95 0 -95 25 -95 24 0 25 2 25 70 0 56 3 72 16 77 24 9 34 -15 34 -84 0
-56 2 -63 20 -63 18 0 20 7 20 63 0 69 10 93 34 84 13 -5 16 -21 16 -77 0 -68
1 -70 25 -70 24 0 25 2 25 69 0 110 -26 149 -77 116 -21 -14 -26 -14 -45 0
-28 19 -28 19 -56 -1z"/>
<path d="M1102 900 c-28 -12 -40 -39 -21 -51 8 -5 20 -2 31 8 19 17 48 11 48
-10 0 -8 -14 -17 -32 -21 -17 -3 -40 -14 -50 -23 -20 -18 -24 -63 -6 -81 16
-16 71 -15 86 0 10 10 14 10 21 0 4 -7 15 -10 23 -7 14 5 15 19 11 83 -7 102
-38 131 -111 102z m56 -127 c-2 -20 -9 -28 -23 -28 -23 0 -33 34 -13 46 26 17
39 10 36 -18z"/>
<path d="M1454 898 c-53 -25 -60 -147 -10 -180 22 -15 75 -8 94 13 43 46 33
138 -18 164 -33 17 -37 17 -66 3z m54 -91 c2 -46 0 -59 -14 -64 -22 -8 -34 14
-34 68 0 50 6 61 30 57 11 -2 16 -18 18 -61z"/>
<path d="M1662 894 c-12 -8 -22 -10 -22 -5 0 6 -11 11 -25 11 -25 0 -25 0 -25
-95 0 -95 0 -95 25 -95 24 0 25 3 25 63 0 69 10 93 34 84 13 -5 16 -21 16 -77
0 -69 0 -70 26 -70 l26 0 -3 86 c-3 71 -7 88 -23 100 -25 18 -27 17 -54 -2z"/>
<path d="M1260 880 c0 -16 7 -20 30 -20 l31 0 -36 -52 c-19 -29 -35 -63 -35
-76 0 -20 2 -21 21 -11 14 7 41 9 71 5 44 -6 49 -5 46 11 -2 10 -17 22 -33 27
-17 6 -31 11 -33 12 -2 1 10 21 27 45 48 66 43 79 -29 79 -53 0 -60 -2 -60
-20z"/>
</g>
</svg>
